HIERARCHY
ROOT Hips
{
	OFFSET -0.001795 -0.223333 0.028219
	CHANNELS 6 Xposition Yposition Zposition Zrotation Yrotation Xrotation 
	JOINT LeftUpLeg
	{
		OFFSET 0.069520 -0.091406 -0.006815
		CHANNELS 3 Zrotation Yrotation Xrotation
		JOINT LeftLeg
		{
			OFFSET 0.034277 -0.375199 -0.004496
			CHANNELS 3 Zrotation Yrotation Xrotation
			JOINT LeftFoot
			{
				OFFSET -0.013596 -0.397961 -0.043693
				CHANNELS 3 Zrotation Yrotation Xrotation
				JOINT LeftToe
				{
					OFFSET 0.026358 -0.055791 0.119288
					CHANNELS 3 Zrotation Yrotation Xrotation
					End Site
					{
						OFFSET 0.000000 0.000000 0.000000
					}
				}
			}
		}
	}
	JOINT RightUpLeg
	{
		OFFSET -0.067670 -0.090522 -0.004320
		CHANNELS 3 Zrotation Yrotation Xrotation
		JOINT RightLeg
		{
			OFFSET -0.038290 -0.382569 -0.008850
			CHANNELS 3 Zrotation Yrotation Xrotation
			JOINT RightFoot
			{
				OFFSET 0.015774 -0.398415 -0.042312
				CHANNELS 3 Zrotation Yrotation Xrotation
				JOINT RightToe
				{
					OFFSET -0.025372 -0.048144 0.123348
					CHANNELS 3 Zrotation Yrotation Xrotation
					End Site
					{
						OFFSET 0.000000 0.000000 0.000000
					}
				}
			}
		}
	}
	JOINT Spine
	{
		OFFSET -0.002533 0.108963 -0.026696
		CHANNELS 3 Zrotation Yrotation Xrotation
		JOINT Spine1
		{
			OFFSET 0.005487 0.135180 0.001092
			CHANNELS 3 Zrotation Yrotation Xrotation
			JOINT Spine2
			{
				OFFSET 0.001457 0.052922 0.025425
				CHANNELS 3 Zrotation Yrotation Xrotation
				JOINT Neck
				{
					OFFSET -0.002778 0.213870 -0.042857
					CHANNELS 3 Zrotation Yrotation Xrotation
					JOINT Head
					{
						OFFSET 0.005152 0.064970 0.051349
						CHANNELS 3 Zrotation Yrotation Xrotation
						End Site
						{
							OFFSET 0.000000 0.000000 0.000000
						}
					}
				}
				JOINT LeftShoulder
				{
					OFFSET 0.078845 0.121749 -0.034090
					CHANNELS 3 Zrotation Yrotation Xrotation
					JOINT LeftArm
					{
						OFFSET 0.090977 0.030469 -0.008868
						CHANNELS 3 Zrotation Yrotation Xrotation
						JOINT LeftForeArm
						{
							OFFSET 0.259612 -0.012772 -0.027456
							CHANNELS 3 Zrotation Yrotation Xrotation
							JOINT LeftHand
							{
								OFFSET 0.249234 0.008986 -0.001171
								CHANNELS 3 Zrotation Yrotation Xrotation
								End Site
								{
									OFFSET 0.000000 0.000000 0.000000
								}
							}
						}
					}
				}
				JOINT RightShoulder
				{
					OFFSET -0.081759 0.118833 -0.038615
					CHANNELS 3 Zrotation Yrotation Xrotation
					JOINT RightArm
					{
						OFFSET -0.096012 0.032551 -0.009143
						CHANNELS 3 Zrotation Yrotation Xrotation
						JOINT RightForeArm
						{
							OFFSET -0.253742 -0.013329 -0.021401
							CHANNELS 3 Zrotation Yrotation Xrotation
							JOINT RightHand
							{
								OFFSET -0.255298 0.007772 -0.005559
								CHANNELS 3 Zrotation Yrotation Xrotation
								End Site
								{
									OFFSET 0.000000 0.000000 0.000000
								}
							}
						}
					}
				}
			}
		}
	}
}
MOTION
Frames: 10
Frame Time: 0.050000
0.000000 0.924492 0.000000 -0.267452 3.668873 1.876459 7.023703 -0.156125 0.924225 -0.032148 -0.301055 7.965148 5.321630 11.370060 1.643040 0.000000 0.000000 0.000000 -3.056252 1.145223 -15.527582 -0.646651 0.734263 17.448732 2.672320 9.030455 -3.049678 0.000000 0.000000 0.000000 2.459605 -0.073323 0.589885 1.845368 -0.934421 0.803065 -1.995161 -4.226761 4.331709 6.645238 -3.909219 -10.060837 0.000000 0.000000 0.000000 -19.683006 -9.357587 3.766454 -38.295888 -2.179675 -3.987827 -86.642167 -50.746056 52.166367 0.000000 0.000000 0.000000 19.810357 3.226734 -0.652699 49.552570 3.933527 -3.020542 24.959125 43.464699 10.900064 0.000000 0.000000 0.000000 
-0.000779 0.924262 -0.003159 -0.522231 0.612135 3.160156 7.674214 -0.144348 0.959009 -0.834327 -0.116027 7.524349 6.247383 13.393874 2.617192 0.000000 0.000000 0.000000 -2.285956 1.492527 -17.907391 -1.848981 1.280672 19.479724 4.232931 13.647499 -2.974829 0.000000 0.000000 0.000000 2.605723 -0.017527 -0.527555 1.473707 -0.825360 2.686445 -0.866328 -8.867499 2.717798 3.826434 -2.459134 -9.247683 0.000000 0.000000 0.000000 -21.645942 -8.674125 5.448345 -36.230487 -6.478791 -3.171106 -90.096914 -55.106938 62.224477 0.000000 0.000000 0.000000 17.325226 3.031121 -2.196272 50.636523 1.054408 -3.698903 27.499862 42.358996 10.145664 0.000000 0.000000 0.000000 
-0.001413 0.922094 -0.006885 -0.387950 -4.429251 3.043663 7.710654 -0.021000 1.659966 -1.986841 0.142021 9.087683 7.590812 16.045792 2.003803 0.000000 0.000000 0.000000 -1.334934 1.923840 -19.768925 -2.654592 1.931812 21.874528 4.752121 15.641779 -3.023965 0.000000 0.000000 0.000000 2.490279 -0.082304 0.571026 3.531147 -1.715421 1.006171 -2.431350 -12.243776 4.361848 0.420787 -0.571584 -10.617515 0.000000 0.000000 0.000000 -21.028205 -9.648470 7.749380 -36.895212 -14.665747 -1.516486 -68.814602 -62.274928 53.160670 0.000000 0.000000 0.000000 17.608059 3.934174 -3.213486 48.891247 -0.323525 -3.787543 27.226613 43.472822 9.289142 0.000000 0.000000 0.000000 
-0.002394 0.920825 -0.010989 -0.335206 -8.541440 3.297546 7.386180 0.096329 2.598290 -2.327215 0.287368 9.096424 9.394009 19.605909 3.986438 0.000000 0.000000 0.000000 -0.666081 2.286157 -21.078668 -3.132554 2.399954 22.928528 6.028544 19.563678 -2.770816 0.000000 0.000000 0.000000 3.025959 -0.129944 1.081487 3.210625 -1.544915 1.528441 -1.062510 -18.120185 3.135196 -3.385182 1.505538 -10.008999 0.000000 0.000000 0.000000 -22.303659 -11.794648 11.876200 -33.220326 -21.272960 -0.401836 -38.244606 -67.154977 34.018695 0.000000 0.000000 0.000000 15.651401 3.619033 -4.681788 47.744772 -1.130321 -3.705642 30.705811 41.367410 8.466923 0.000000 0.000000 0.000000 
-0.003693 0.919026 -0.014883 -0.302720 -11.848460 2.844828 6.954838 0.234003 3.784023 -2.730036 0.456588 9.817493 10.052015 20.832791 5.156489 0.000000 0.000000 0.000000 -0.136003 2.602541 -22.072196 -3.592470 2.842500 23.815719 6.442863 19.435091 -1.452451 0.000000 0.000000 0.000000 3.148737 -0.216252 2.432532 4.520434 -2.129075 1.226973 -1.530353 -22.910548 3.084118 -6.148042 3.016432 -10.175712 0.000000 0.000000 0.000000 -20.860275 -15.203072 15.512376 -27.039059 -30.637791 1.023756 2.854556 -57.842507 4.122477 0.000000 0.000000 0.000000 13.909497 3.326100 -5.484793 47.636741 -2.255361 -4.160450 30.398374 41.007601 7.108289 0.000000 0.000000 0.000000 
-0.005768 0.918813 -0.017521 -0.392111 -15.746078 3.055156 6.542714 0.367114 4.649033 -2.364238 0.461989 9.715752 10.812156 21.877263 7.806559 0.000000 0.000000 0.000000 0.950086 3.040686 -23.003926 -4.617703 3.579799 24.970584 7.369494 21.485291 -0.679523 0.000000 0.000000 0.000000 3.853348 -0.309829 3.494677 4.330875 -1.975019 0.220013 -1.201791 -26.918680 3.601605 -8.324070 3.957227 -11.356476 0.000000 0.000000 0.000000 -18.702342 -18.018975 18.107549 -19.522893 -37.269999 1.122334 16.732165 -41.593681 -3.126668 0.000000 0.000000 0.000000 11.461903 2.410202 -5.814716 47.757721 -3.541745 -5.190402 30.691519 41.583851 6.265221 0.000000 0.000000 0.000000 
-0.008280 0.918657 -0.019046 -0.343880 -18.407821 2.777616 6.033182 0.579726 6.681297 -1.849323 0.356491 8.124340 10.753120 21.402092 10.049342 0.000000 0.000000 0.000000 1.713856 3.260170 -23.069503 -5.485889 4.034291 24.985724 8.025486 22.814697 -0.086883 0.000000 0.000000 0.000000 3.905102 -0.366556 4.483461 4.680171 -2.099485 -0.532292 -1.346733 -29.937690 4.062200 -9.185527 4.598328 -10.325055 0.000000 0.000000 0.000000 -16.168099 -20.440765 19.431235 -12.010545 -39.837214 0.183427 19.686425 -25.481490 -2.913090 0.000000 0.000000 0.000000 9.586399 1.061024 -6.024055 48.428834 -4.935151 -6.494771 30.158779 42.574434 5.509209 0.000000 0.000000 0.000000 
-0.010998 0.919024 -0.020068 -0.101852 -20.872933 2.477427 5.830181 0.755079 7.944780 -1.213542 0.247338 7.740447 10.730559 20.805955 12.754758 0.000000 0.000000 0.000000 2.110568 3.507175 -23.584395 -5.734257 4.575554 26.431422 8.694779 23.510644 0.899294 0.000000 0.000000 0.000000 4.321638 -0.437896 5.535413 4.158969 -1.855376 -0.806540 -1.052889 -32.281821 4.452826 -10.478825 5.204015 -10.924713 0.000000 0.000000 0.000000 -12.757111 -22.565731 19.646070 -7.051919 -41.230632 -0.299511 19.539610 -14.269116 -1.636861 0.000000 0.000000 0.000000 8.376148 -0.200161 -6.331049 48.131106 -6.172388 -7.408950 28.907932 43.606386 4.685839 0.000000 0.000000 0.000000 
-0.013260 0.919341 -0.020761 -0.171231 -22.003192 2.255291 5.501916 0.886295 8.899375 -0.229377 0.038616 7.382512 9.714040 19.075776 12.566432 0.000000 0.000000 0.000000 2.831688 3.635534 -23.461112 -6.066214 4.884251 26.929506 9.229995 24.487382 1.351366 0.000000 0.000000 0.000000 4.674459 -0.487764 6.229693 4.261446 -1.895067 -1.686375 -1.024081 -34.255274 5.018812 -11.071751 5.686402 -10.423465 0.000000 0.000000 0.000000 -11.449292 -23.632410 20.121131 -3.419925 -41.388397 -0.932428 18.305824 -8.398951 -0.844227 0.000000 0.000000 0.000000 7.536647 -1.292087 -6.607544 47.559571 -7.465085 -8.141025 27.782906 43.477952 3.883063 0.000000 0.000000 0.000000 
-0.014931 0.920684 -0.021406 0.147807 -23.214923 2.003164 5.227961 0.975083 9.345791 -0.066298 0.019802 7.429594 8.808417 17.591355 11.665798 0.000000 0.000000 0.000000 3.042989 3.742566 -23.630940 -6.115081 5.125647 27.534685 9.094023 24.251603 1.285396 0.000000 0.000000 0.000000 4.796465 -0.530111 7.070927 4.085329 -1.818933 -2.085229 -0.939937 -34.687282 5.572550 -11.613986 6.099776 -10.239974 0.000000 0.000000 0.000000 -9.153575 -24.706783 19.589188 -3.264020 -41.411877 -0.605334 18.282822 -5.310045 -0.409893 0.000000 0.000000 0.000000 7.101222 -2.246265 -6.871080 47.246980 -8.582338 -8.670663 28.059539 44.326596 3.790117 0.000000 0.000000 0.000000 
